<svg width="53" height="51" viewBox="0 0 53 51" fill="none" xmlns="http://www.w3.org/2000/svg">
<path d="M38.5434 10.2422H14.0185C12.7019 10.2422 11.6233 11.2474 11.5822 12.5127L11.4506 16.5626C10.7569 16.5873 10.0987 16.8047 9.62472 17.0781C8.6091 17.6641 7.59347 18.4453 8.40597 23.1328C9.21847 27.8203 10.031 30.9453 12.4685 33.4844C13.5061 34.564 15.0569 35.2422 16.7115 35.2422H35.8505C37.505 35.2422 39.0559 34.564 40.0935 33.4844C42.531 30.9453 43.2513 27.8203 44.0638 23.1328C44.8763 18.4453 43.8607 17.6641 42.8451 17.0781C42.3922 16.8168 41.7711 16.6067 41.1115 16.567L40.9798 12.5127C40.9386 11.2474 39.86 10.2422 38.5434 10.2422Z" fill="#D5DE68"/>
<path d="M38.5434 10.2422H14.0184C12.7018 10.2422 11.6232 11.2474 11.5821 12.5127L11.45 16.5783C12.6019 16.2892 15.109 17.4297 15.9215 24.3047L17.7496 23.1328H34.8121L36.6402 24.3047C36.7775 21.5626 37.8641 16.1785 41.1118 16.5783L40.9797 12.5127C40.9385 11.2474 39.8599 10.2422 38.5434 10.2422Z" fill="#A8B13C"/>
<path d="M36.5122 10.2422H16.0497C14.7332 10.2422 13.6545 11.2474 13.6134 12.5127L13.6872 17.2734C14.9059 18.4453 15.3122 20.9844 15.9215 24.3047L17.7497 23.1328H34.8122L36.6403 24.3047C36.8434 21.1797 37.8591 18.0547 38.8747 17.2734L38.9485 12.5127C38.9074 11.2474 37.8287 10.2422 36.5122 10.2422Z" fill="#C2CC4D"/>
<path d="M34.8123 23.1328H17.7498L14.4998 25.2812H38.0623L34.8123 23.1328Z" fill="#BDC753"/>
<rect x="13.6873" y="25.0859" width="25.1875" height="5.46875" rx="2.73438" fill="#F0FA7D"/>
<path d="M38.0623 43.0547L36.8435 35.2422H34.2029L36.6404 43.0547H38.0623Z" fill="#CA956F"/>
<path d="M15.3123 43.0547L16.531 35.2422H19.1716L16.7341 43.0547H15.3123Z" fill="#CA956F"/>
<path d="M16.1246 33.4844C16.1246 33.3765 16.2156 33.2891 16.3277 33.2891H35.6246C35.7368 33.2891 35.8277 33.3765 35.8277 33.4844C35.8277 33.5922 35.7368 33.6797 35.6246 33.6797H16.3277C16.2156 33.6797 16.1246 33.5922 16.1246 33.4844Z" fill="black"/>
<path fill-rule="evenodd" clip-rule="evenodd" d="M19.1715 14.1484C19.1715 13.8248 19.4443 13.5625 19.7809 13.5625C20.1174 13.5625 20.3902 13.8248 20.3902 14.1484C20.3902 14.472 20.1174 14.7344 19.7809 14.7344C19.4443 14.7344 19.1715 14.472 19.1715 14.1484ZM19.7809 13.9531C19.6687 13.9531 19.5777 14.0406 19.5777 14.1484C19.5777 14.2563 19.6687 14.3438 19.7809 14.3438C19.893 14.3438 19.984 14.2563 19.984 14.1484C19.984 14.0406 19.893 13.9531 19.7809 13.9531Z" fill="black"/>
<path fill-rule="evenodd" clip-rule="evenodd" d="M19.7809 17.0781C19.4443 17.0781 19.1715 17.3405 19.1715 17.6641C19.1715 17.9877 19.4443 18.25 19.7809 18.25C20.1174 18.25 20.3902 17.9877 20.3902 17.6641C20.3902 17.3405 20.1174 17.0781 19.7809 17.0781ZM19.5777 17.6641C19.5777 17.5562 19.6687 17.4688 19.7809 17.4688C19.893 17.4688 19.984 17.5562 19.984 17.6641C19.984 17.7719 19.893 17.8594 19.7809 17.8594C19.6687 17.8594 19.5777 17.7719 19.5777 17.6641Z" fill="black"/>
<path fill-rule="evenodd" clip-rule="evenodd" d="M23.6402 14.1484C23.6402 13.8248 23.9131 13.5625 24.2496 13.5625C24.5862 13.5625 24.859 13.8248 24.859 14.1484C24.859 14.472 24.5862 14.7344 24.2496 14.7344C23.9131 14.7344 23.6402 14.472 23.6402 14.1484ZM24.2496 13.9531C24.1374 13.9531 24.0465 14.0406 24.0465 14.1484C24.0465 14.2563 24.1374 14.3438 24.2496 14.3438C24.3618 14.3438 24.4527 14.2563 24.4527 14.1484C24.4527 14.0406 24.3618 13.9531 24.2496 13.9531Z" fill="black"/>
<path fill-rule="evenodd" clip-rule="evenodd" d="M24.2496 17.4688C23.9131 17.4688 23.6402 17.7311 23.6402 18.0547C23.6402 18.3783 23.9131 18.6406 24.2496 18.6406C24.5862 18.6406 24.859 18.3783 24.859 18.0547C24.859 17.7311 24.5862 17.4688 24.2496 17.4688ZM24.0465 18.0547C24.0465 17.9468 24.1374 17.8594 24.2496 17.8594C24.3618 17.8594 24.4527 17.9468 24.4527 18.0547C24.4527 18.1626 24.3618 18.25 24.2496 18.25C24.1374 18.25 24.0465 18.1626 24.0465 18.0547Z" fill="black"/>
<path fill-rule="evenodd" clip-rule="evenodd" d="M27.7027 14.1484C27.7027 13.8248 27.9756 13.5625 28.3121 13.5625C28.6487 13.5625 28.9215 13.8248 28.9215 14.1484C28.9215 14.472 28.6487 14.7344 28.3121 14.7344C27.9756 14.7344 27.7027 14.472 27.7027 14.1484ZM28.3121 13.9531C28.1999 13.9531 28.109 14.0406 28.109 14.1484C28.109 14.2563 28.1999 14.3438 28.3121 14.3438C28.4243 14.3438 28.5152 14.2563 28.5152 14.1484C28.5152 14.0406 28.4243 13.9531 28.3121 13.9531Z" fill="black"/>
<path fill-rule="evenodd" clip-rule="evenodd" d="M28.3121 17.4688C27.9756 17.4688 27.7027 17.7311 27.7027 18.0547C27.7027 18.3783 27.9756 18.6406 28.3121 18.6406C28.6487 18.6406 28.9215 18.3783 28.9215 18.0547C28.9215 17.7311 28.6487 17.4688 28.3121 17.4688ZM28.109 18.0547C28.109 17.9468 28.1999 17.8594 28.3121 17.8594C28.4243 17.8594 28.5152 17.9468 28.5152 18.0547C28.5152 18.1626 28.4243 18.25 28.3121 18.25C28.1999 18.25 28.109 18.1626 28.109 18.0547Z" fill="black"/>
<path fill-rule="evenodd" clip-rule="evenodd" d="M32.1715 14.1484C32.1715 13.8248 32.4443 13.5625 32.7809 13.5625C33.1174 13.5625 33.3902 13.8248 33.3902 14.1484C33.3902 14.472 33.1174 14.7344 32.7809 14.7344C32.4443 14.7344 32.1715 14.472 32.1715 14.1484ZM32.7809 13.9531C32.6687 13.9531 32.5777 14.0406 32.5777 14.1484C32.5777 14.2563 32.6687 14.3438 32.7809 14.3438C32.893 14.3438 32.984 14.2563 32.984 14.1484C32.984 14.0406 32.893 13.9531 32.7809 13.9531Z" fill="black"/>
<path fill-rule="evenodd" clip-rule="evenodd" d="M32.7809 17.0781C32.4443 17.0781 32.1715 17.3405 32.1715 17.6641C32.1715 17.9877 32.4443 18.25 32.7809 18.25C33.1174 18.25 33.3902 17.9877 33.3902 17.6641C33.3902 17.3405 33.1174 17.0781 32.7809 17.0781ZM32.5777 17.6641C32.5777 17.5562 32.6687 17.4688 32.7809 17.4688C32.893 17.4688 32.984 17.5562 32.984 17.6641C32.984 17.7719 32.893 17.8594 32.7809 17.8594C32.6687 17.8594 32.5777 17.7719 32.5777 17.6641Z" fill="black"/>
<path fill-rule="evenodd" clip-rule="evenodd" d="M14.0184 10.0469C12.5921 10.0469 11.4236 11.1359 11.379 12.5066L11.2532 16.3787C10.5925 16.4336 9.97652 16.6473 9.52009 16.9106C8.99481 17.2137 8.43701 17.5876 8.1359 18.5088C7.84181 19.4086 7.79788 20.8134 8.20549 23.1649C9.01777 27.8512 9.83638 31.0307 12.3191 33.6169C13.3079 34.6457 14.7432 35.321 16.2971 35.4238L15.1112 43.0257C15.1025 43.0819 15.1196 43.1391 15.1582 43.1821C15.1968 43.2252 15.253 43.25 15.3121 43.25H16.734C16.8237 43.25 16.9028 43.1934 16.9285 43.1108L19.3226 35.4375H34.0516L36.4457 43.1108C36.4715 43.1934 36.5505 43.25 36.6402 43.25H38.0621C38.1212 43.25 38.1774 43.2252 38.216 43.1821C38.2546 43.1391 38.2718 43.0819 38.263 43.0257L37.0609 35.3198C38.303 35.0761 39.4253 34.4673 40.2425 33.6169C42.7266 31.0294 43.4526 27.8467 44.2641 23.1649C44.6717 20.8134 44.6277 19.4086 44.3337 18.5088C44.0326 17.5876 43.4748 17.2137 42.9495 16.9106C42.7369 16.788 42.4897 16.6761 42.2194 16.586C42.1431 16.5549 42.0648 16.5275 41.9857 16.5022C41.9576 16.4932 41.9288 16.4904 41.9011 16.4931C41.7107 16.4453 41.5122 16.409 41.3088 16.3874L41.1827 12.5066C41.1381 11.1359 39.9696 10.0469 38.5433 10.0469H14.0184ZM18.8985 35.4375H16.7058L15.548 42.8594H16.5829L18.8985 35.4375ZM35.8503 35.0469C37.4482 35.0469 38.945 34.3915 39.9441 33.3519C42.3351 30.8613 43.0499 27.7939 43.8634 23.1007C44.2682 20.7648 44.2106 19.4352 43.9461 18.6259C43.7405 17.997 43.4073 17.6728 43.0317 17.4237C43.1045 17.6474 43.1402 17.9187 43.1402 18.25C43.1402 18.614 43.0087 19.4513 42.7938 20.5268C42.5773 21.6108 42.2718 22.9568 41.9156 24.3513C41.2054 27.1315 40.2864 30.1335 39.4601 31.6232C39.4073 31.7183 39.2843 31.7543 39.1853 31.7036C39.0863 31.6528 39.0488 31.5345 39.1016 31.4393C39.9004 29.9993 40.8094 27.0443 41.5211 24.2581C41.8758 22.8694 42.1798 21.5299 42.3949 20.4531C42.6116 19.3681 42.734 18.5696 42.734 18.25C42.734 17.7225 42.6353 17.4298 42.4949 17.2485C42.3923 17.116 42.2547 17.0261 42.0719 16.9503C41.6453 16.8099 41.1559 16.7297 40.6637 16.7631C39.8938 16.8154 39.1159 17.1446 38.5452 17.9677C38.3666 18.2254 38.1849 18.6302 38.0084 19.1323C37.833 19.6309 37.6673 20.2124 37.5165 20.8147C37.2149 22.0192 36.9758 23.2966 36.841 24.1391C36.8364 24.1677 36.8256 24.1939 36.8101 24.2166L38.1772 25.1203C38.1938 25.1313 38.2082 25.1442 38.2203 25.1586C38.7353 25.4695 39.0777 26.0205 39.0777 26.6484V28.9922C39.0777 29.963 38.2593 30.75 37.2496 30.75H36.2047C36.8158 31.3053 37.5963 32.3432 37.8562 33.8429C37.8746 33.9493 37.7999 34.0499 37.6892 34.0677C37.5786 34.0854 37.4739 34.0135 37.4555 33.9071C37.1505 32.1477 36.082 31.0854 35.5644 30.75H16.1848C15.6672 31.0854 14.5987 32.1477 14.2938 33.9071C14.2753 34.0135 14.1707 34.0854 14.06 34.0677C13.9493 34.0499 13.8746 33.9493 13.893 33.8429C14.153 32.3432 14.9334 31.3053 15.5446 30.75H15.3121C14.3025 30.75 13.484 29.963 13.484 28.9922V26.6484C13.484 26.0205 13.8264 25.4695 14.3415 25.1586C14.3536 25.1442 14.3679 25.1313 14.3846 25.1203L15.7065 24.2464C15.5682 23.4029 15.3131 22.1247 14.9995 20.9138C14.8372 20.287 14.6599 19.6808 14.4758 19.1634C14.2904 18.6423 14.103 18.2253 13.9243 17.9677C13.3536 17.1446 12.5758 16.8154 11.8059 16.7631C11.4443 16.7386 11.0842 16.7753 10.7494 16.8522C10.7357 16.8607 10.7206 16.8676 10.7045 16.8728C10.4104 16.9671 10.2063 17.0684 10.0668 17.2485C9.92643 17.4298 9.82774 17.7225 9.82774 18.25C9.82774 18.5696 9.95009 19.3681 10.1669 20.4531C10.382 21.5299 10.6859 22.8694 11.0406 24.2581C11.7523 27.0443 12.6614 29.9993 13.4601 31.4393C13.5129 31.5345 13.4754 31.6528 13.3764 31.7036C13.2775 31.7543 13.1544 31.7183 13.1016 31.6232C12.2754 30.1335 11.3563 27.1315 10.6461 24.3513C10.2899 22.9568 9.98445 21.6108 9.76791 20.5268C9.55304 19.4513 9.42149 18.614 9.42149 18.25C9.42149 17.8803 9.46601 17.5853 9.55677 17.3478C9.13327 17.6084 8.75048 17.9314 8.52346 18.6259C8.25894 19.4352 8.20132 20.7648 8.60621 23.1007C9.41892 27.7894 10.2254 30.86 12.6176 33.3519C13.6168 34.3915 15.1135 35.0469 16.7114 35.0469H35.8503ZM36.7914 42.8594L34.4757 35.4375H36.6684L37.8262 42.8594H36.7914ZM14.8132 10.4375H14.0184C12.8115 10.4375 11.8228 11.359 11.7851 12.5188L11.6601 16.3658C11.7181 16.367 11.7762 16.3695 11.8345 16.3735C12.4007 16.4119 12.9743 16.5839 13.484 16.95V12.5127C13.484 11.6493 13.9033 11.0246 14.4978 10.6226C14.5985 10.5545 14.704 10.4929 14.8132 10.4375ZM13.8902 17.2992V12.5127C13.8902 11.7892 14.2339 11.2786 14.7315 10.9421C15.2363 10.6007 15.9037 10.4375 16.5297 10.4375H36.0309C36.6568 10.4375 37.3242 10.6007 37.829 10.9421C38.3266 11.2786 38.6703 11.7892 38.6703 12.5127L38.6715 17.209C38.5064 17.3643 38.3506 17.5442 38.2072 17.751C37.9981 18.0526 37.8028 18.497 37.6235 19.0072C37.4429 19.5208 37.2739 20.1145 37.1215 20.7233C36.8281 21.8952 36.5937 23.1327 36.4552 23.982L35.1352 23.1093C34.9659 22.9974 34.7652 22.9375 34.5598 22.9375H18.002C17.7965 22.9375 17.5959 22.9974 17.4266 23.1093L16.0769 24.0016C15.9317 23.1528 15.6884 21.9573 15.3937 20.8195C15.2298 20.1864 15.0493 19.5686 14.8602 19.037C14.6725 18.5093 14.4714 18.0526 14.2624 17.751C14.1459 17.5831 14.0213 17.4329 13.8902 17.2992ZM37.1127 24.8906L34.905 23.4312C34.8034 23.3641 34.6831 23.3281 34.5598 23.3281H18.002C17.8787 23.3281 17.7583 23.3641 17.6568 23.4312L15.4491 24.8906H37.1127ZM37.2496 30.3594C38.0349 30.3594 38.6715 29.7473 38.6715 28.9922V26.6484C38.6715 25.8934 38.0349 25.2812 37.2496 25.2812H15.3121C14.5268 25.2812 13.8902 25.8934 13.8902 26.6484V28.9922C13.8902 29.7473 14.5268 30.3594 15.3121 30.3594H37.2496ZM39.0776 16.8864C39.5638 16.5638 40.1027 16.4096 40.6351 16.3735C40.7242 16.3674 40.8131 16.3647 40.9016 16.365L40.7766 12.5188C40.7389 11.359 39.7502 10.4375 38.5433 10.4375H37.7473C37.8565 10.4929 37.9621 10.5545 38.0627 10.6226C38.6572 11.0246 39.0765 11.6493 39.0765 12.5127L39.0776 16.8864Z" fill="black"/>
</svg>
