<svg width="76" height="62" viewBox="0 0 76 62" fill="none" xmlns="http://www.w3.org/2000/svg">
<g clip-path="url(#clip0_489_1409)">
<mask id="mask0_489_1409" style="mask-type:luminance" maskUnits="userSpaceOnUse" x="0" y="6" width="70" height="56">
<path d="M70 6H0V62H70V6Z" fill="white"/>
</mask>
<g mask="url(#mask0_489_1409)">
<mask id="mask1_489_1409" style="mask-type:luminance" maskUnits="userSpaceOnUse" x="0" y="6" width="70" height="56">
<path d="M69.125 6H0V62H69.125V6Z" fill="white"/>
</mask>
<g mask="url(#mask1_489_1409)">
<path d="M12.2648 53.511C12.1072 53.5218 11.9501 53.4843 11.8144 53.4037C11.6787 53.3231 11.5708 53.2031 11.5052 53.0597L10.6517 51.6038H10.5066V54.6349C10.5123 54.8546 10.4711 55.073 10.3858 55.2756C10.3005 55.4781 10.1729 55.6603 10.0116 55.8099C9.85822 55.9623 9.67557 56.0822 9.47469 56.1627C9.2738 56.2431 9.05874 56.2824 8.84231 56.2782C8.62581 56.2818 8.41083 56.2415 8.21033 56.16C8.00982 56.0784 7.82794 55.9572 7.67563 55.8037C7.52332 55.6502 7.40373 55.4675 7.32408 55.2666C7.24442 55.0657 7.20634 54.8509 7.21212 54.6349V47.1677C7.21077 46.8321 7.29939 46.5023 7.46881 46.2124C7.63823 45.9225 7.88229 45.683 8.17568 45.5189C8.46908 45.3547 8.80114 45.2718 9.13746 45.2788C9.47377 45.2858 9.80212 45.3823 10.0884 45.5584C10.3765 45.7385 10.6119 45.9911 10.7712 46.2907L12.1368 48.9813H12.316L13.6816 46.2907C13.8467 45.9925 14.0845 45.7407 14.373 45.5584C14.6686 45.3707 15.0126 45.273 15.363 45.2775C15.6118 45.2725 15.859 45.3182 16.0894 45.4119C16.3199 45.5056 16.5287 45.6453 16.703 45.8224C16.8819 45.9975 17.0234 46.207 17.1187 46.4383C17.2141 46.6695 17.2614 46.9177 17.2578 47.1677V54.6349C17.2626 54.8529 17.2226 55.0696 17.1404 55.2717C17.0582 55.4737 16.9355 55.6569 16.7798 55.8099C16.5485 56.0392 16.2541 56.1947 15.934 56.2569C15.614 56.3191 15.2826 56.2852 14.9819 56.1594C14.6812 56.0335 14.4247 55.8215 14.2449 55.5501C14.0651 55.2787 13.97 54.9602 13.9718 54.6349V51.6038H13.8182L12.9647 53.0597C12.9048 53.1948 12.8067 53.3095 12.6823 53.3897C12.558 53.4698 12.4129 53.512 12.2648 53.511Z" fill="#315EFB"/>
<path d="M21.1497 45.5329C21.7487 45.2801 22.3941 45.1553 23.0444 45.1668C23.6848 45.1552 24.3208 45.274 24.9136 45.5159C25.3862 45.7058 25.8114 45.9964 26.1597 46.3673C26.4752 46.7701 26.71 47.2297 26.8511 47.7211C27.0234 48.2061 27.1408 48.7087 27.201 49.2197C27.3034 50.2844 27.3034 51.3565 27.201 52.4212C27.1408 52.9294 27.0234 53.4292 26.8511 53.9112C26.6944 54.3831 26.4513 54.822 26.1341 55.2054C25.7877 55.5785 25.3619 55.8694 24.888 56.0569C24.2928 56.2887 23.6577 56.4015 23.0188 56.3889C22.3799 56.4031 21.7445 56.2902 21.1497 56.0569C20.6758 55.8694 20.25 55.5785 19.9036 55.2054C19.5864 54.822 19.3433 54.3831 19.1866 53.9112C19.0142 53.4292 18.8969 52.9294 18.8367 52.4212C18.7229 51.357 18.7229 50.2838 18.8367 49.2197C18.8969 48.7087 19.0142 48.2061 19.1866 47.7211C19.3414 47.2458 19.5846 46.8039 19.9036 46.4184C20.2484 46.0352 20.6739 45.7328 21.1497 45.5329ZM23.0444 53.5876C23.6931 53.5876 24.0174 52.6936 24.0174 50.9056C24.0174 49.0835 23.6931 48.1809 23.0444 48.1809C22.3958 48.1809 22.0715 49.0835 22.0715 50.9056C22.0715 52.7277 22.3702 53.5876 23.0444 53.5876Z" fill="#315EFB"/>
<path d="M34.2596 55.6482C33.7583 56.0563 33.1312 56.2791 32.4843 56.2791C31.8373 56.2791 31.2102 56.0563 30.709 55.6482C30.2101 55.239 29.8618 54.6759 29.7189 54.0475L28.0119 46.8357C28.0015 46.7651 28.0015 46.6934 28.0119 46.6229C28.0139 46.4394 28.058 46.2587 28.1409 46.0949C28.2237 45.9311 28.3431 45.7884 28.4899 45.6777C28.8025 45.4151 29.1993 45.2731 29.608 45.2776C29.9649 45.2726 30.3133 45.3864 30.598 45.6011C30.7415 45.6986 30.8633 45.8245 30.9558 45.971C31.0483 46.1175 31.1096 46.2814 31.1357 46.4526L32.4331 52.8299H32.5867L33.8499 46.444C33.876 46.2739 33.9363 46.1107 34.0273 45.9644C34.1182 45.8181 34.2379 45.6916 34.379 45.5926C34.6664 45.3767 35.0179 45.2628 35.3776 45.269C35.7823 45.2643 36.1756 45.4031 36.4872 45.6607C36.6372 45.7709 36.7593 45.9144 36.8437 46.08C36.9282 46.2456 36.9727 46.4286 36.9737 46.6143C36.9797 46.6852 36.9797 46.7564 36.9737 46.8272L35.2667 54.039C35.1255 54.6746 34.77 55.2426 34.2596 55.6482Z" fill="#315EFB"/>
<path d="M38.3221 54.6349V46.9718C38.3189 46.754 38.3595 46.5378 38.4416 46.3359C38.5237 46.1341 38.6456 45.9508 38.8001 45.7968C38.9493 45.643 39.1286 45.5214 39.3267 45.4394C39.5249 45.3574 39.7378 45.3168 39.9523 45.32C40.1707 45.3167 40.3874 45.3573 40.5897 45.4392C40.7921 45.5211 40.9758 45.6427 41.1302 45.7968C41.2874 45.9491 41.4117 46.132 41.4953 46.3341C41.579 46.5362 41.6203 46.7532 41.6167 46.9718V54.6349C41.6218 54.8537 41.5813 55.0712 41.4975 55.2735C41.4137 55.4758 41.2886 55.6585 41.1302 55.8099C40.9754 55.9629 40.7914 56.0832 40.589 56.1636C40.3867 56.2441 40.1701 56.2831 39.9523 56.2782C39.7384 56.2831 39.5257 56.244 39.3275 56.1634C39.1292 56.0829 38.9497 55.9625 38.8001 55.8099C38.6444 55.6568 38.5217 55.4737 38.4395 55.2716C38.3573 55.0696 38.3174 54.8529 38.3221 54.6349Z" fill="#315EFB"/>
<path d="M48.6495 55.3842L46.9425 52.3956H46.7803V54.669C46.786 54.8886 46.7448 55.107 46.6595 55.3096C46.5741 55.5122 46.4466 55.6943 46.2853 55.844C46.1318 55.9963 45.9492 56.1163 45.7483 56.1967C45.5475 56.2772 45.3324 56.3165 45.116 56.3123C44.8995 56.3158 44.6845 56.2756 44.484 56.194C44.2835 56.1124 44.1016 55.9913 43.9493 55.8377C43.797 55.6842 43.6774 55.5015 43.5977 55.3006C43.5181 55.0998 43.48 54.8849 43.4858 54.669V47.1506C43.4823 46.9047 43.528 46.6605 43.6204 46.4324C43.7127 46.2043 43.8497 45.9969 44.0235 45.8224C44.1934 45.6464 44.3977 45.5072 44.6238 45.4135C44.85 45.3197 45.093 45.2734 45.3379 45.2774C45.6681 45.271 45.9938 45.3549 46.2797 45.52C46.5656 45.6851 46.8007 45.9251 46.9595 46.214L48.6665 49.1601H48.8543V46.9293C48.8507 46.7106 48.8919 46.4936 48.9756 46.2915C49.0593 46.0894 49.1836 45.9066 49.3408 45.7543C49.4938 45.6008 49.6761 45.4795 49.877 45.3976C50.0778 45.3157 50.2931 45.2748 50.5101 45.2774C50.7259 45.274 50.9401 45.3145 51.1397 45.3965C51.3393 45.4785 51.52 45.6002 51.6709 45.7543C51.8105 45.9148 51.917 46.1012 51.9843 46.3028C52.0517 46.5044 52.0786 46.7173 52.0635 46.9293V54.4135C52.0673 54.6583 52.0216 54.9012 51.9293 55.128C51.8369 55.3547 51.6996 55.5606 51.5258 55.7333C51.3581 55.9098 51.1554 56.0495 50.9305 56.1434C50.7057 56.2372 50.4636 56.2831 50.2199 56.2782C49.8897 56.2781 49.5656 56.1899 49.2811 56.0228C49.0184 55.8684 48.8006 55.6483 48.6495 55.3842Z" fill="#315EFB"/>
<path d="M59.3438 49.5518H60.8887C61.0511 49.5506 61.2122 49.5818 61.3623 49.6436C61.5125 49.7053 61.6489 49.7964 61.7633 49.9114C61.8778 50.0263 61.9681 50.163 62.029 50.3132C62.0898 50.4635 62.12 50.6243 62.1177 50.7864V54.5328C62.1204 54.8343 62.0428 55.1311 61.8929 55.3929C61.7429 55.6547 61.526 55.8721 61.2642 56.0228C60.9796 56.1715 60.6701 56.2668 60.351 56.3038C60.038 56.3615 59.7215 56.3985 59.4036 56.4145H58.4306C57.6258 56.4349 56.8275 56.2657 56.1005 55.9206C55.4877 55.6052 54.976 55.1243 54.624 54.5328C54.2561 54.0107 53.9684 53.4367 53.7705 52.8299C53.6043 52.1846 53.5211 51.5208 53.523 50.8545C53.5217 50.3187 53.5616 49.7835 53.6425 49.2538C53.74 48.7257 53.9004 48.2112 54.1204 47.7212C54.3161 47.2351 54.6062 46.7924 54.9739 46.4184C55.3793 46.0362 55.8625 45.7458 56.3907 45.567C57.0501 45.3305 57.747 45.2151 58.4477 45.2264C59.1844 45.2153 59.9208 45.2637 60.6497 45.3712C60.9833 45.4313 61.2853 45.606 61.5032 45.865C61.7278 46.119 61.8521 46.4458 61.8531 46.7846C61.849 47.155 61.7058 47.5104 61.452 47.7808C61.3348 47.9204 61.1887 48.0331 61.0236 48.111C60.8586 48.1889 60.6786 48.2302 60.4961 48.232C60.1046 48.1953 59.7115 48.1783 59.3182 48.1809C58.9734 48.1432 58.6245 48.1825 58.2968 48.2958C57.9691 48.4092 57.6708 48.5939 57.4235 48.8366C57.012 49.4255 56.8189 50.139 56.8772 50.8545C56.8315 51.5652 56.9727 52.2755 57.2869 52.915C57.4468 53.1531 57.6689 53.3432 57.929 53.4647C58.1892 53.5862 58.4777 53.6346 58.7635 53.6047H59.5401V51.9784H59.3694C59.2104 51.9789 59.0529 51.9475 58.9063 51.8861C58.7597 51.8247 58.6269 51.7344 58.5159 51.6208C58.4028 51.5095 58.3129 51.377 58.2514 51.2308C58.1898 51.0847 58.1579 50.9279 58.1575 50.7694C58.1563 50.608 58.1873 50.4481 58.2487 50.2988C58.3101 50.1496 58.4006 50.0139 58.5149 49.8999C58.6293 49.7858 58.7652 49.6955 58.9148 49.6343C59.0645 49.5731 59.2248 49.5421 59.3865 49.5433L59.3438 49.5518Z" fill="#315EFB"/>
<path d="M13.9206 28.0781L13.2207 31.1263H14.8082L14.0998 28.0781H13.9206Z" fill="#315EFB"/>
<path d="M62.3567 32.6675L56.9796 25.1067C56.7491 24.7813 56.4433 24.5163 56.0882 24.334C55.7331 24.1517 55.3391 24.0575 54.9398 24.0594H46.217C45.562 24.0594 44.9337 24.3183 44.4698 24.7796C44.0059 25.2408 43.7441 25.8667 43.7418 26.5201V36.9078H41.0192V14.5827C41.0203 14.2995 40.9652 14.0189 40.8571 13.757C40.749 13.4952 40.59 13.2572 40.3892 13.057C40.1885 12.8567 39.95 12.6981 39.6875 12.5902C39.425 12.4824 39.1437 12.4274 38.8598 12.4285H8.53496C8.25036 12.4263 7.96814 12.4804 7.70465 12.5878C7.44117 12.6951 7.20166 12.8536 7.00002 13.0539C6.79837 13.2543 6.63859 13.4926 6.52994 13.755C6.42129 14.0175 6.36593 14.2988 6.36707 14.5827V40.4158C6.3602 40.7032 6.41132 40.9892 6.5174 41.2566C6.62348 41.5239 6.78236 41.7673 6.98458 41.9722C7.18681 42.1772 7.42827 42.3394 7.6946 42.4494C7.96094 42.5594 8.24672 42.6149 8.53496 42.6125H60.3766C61.0315 42.6125 61.6598 42.3535 62.1237 41.8923C62.5877 41.4311 62.8495 40.8052 62.8517 40.1518V34.1916C62.8548 33.6438 62.6813 33.1095 62.3567 32.6675ZM18.666 36.4054C18.3027 36.7097 17.843 36.8756 17.3687 36.8737C16.9552 36.878 16.5513 36.7497 16.2164 36.5076C15.8934 36.2747 15.666 35.9329 15.5763 35.5455L15.1922 34.098H12.8024L12.4525 35.5795C12.358 35.9648 12.1316 36.3051 11.8124 36.5417C11.4799 36.782 11.0793 36.9103 10.6687 36.9078C10.1969 36.8992 9.74332 36.7243 9.38846 36.4139C9.21314 36.2848 9.07024 36.1169 8.97101 35.9233C8.87178 35.7298 8.81893 35.5159 8.81662 35.2985C8.80459 35.2167 8.80459 35.1335 8.81662 35.0516L10.7882 26.6308C10.9468 25.8843 11.3563 25.2144 11.9489 24.732C12.5287 24.2447 13.2649 23.9818 14.0229 23.9913C14.7828 23.9803 15.5204 24.2468 16.097 24.7405C16.678 25.2208 17.0832 25.8795 17.2492 26.6137L19.2208 35.0346C19.2272 35.1168 19.2272 35.1993 19.2208 35.2815C19.2224 35.499 19.1731 35.7139 19.0768 35.909C18.9805 36.1041 18.8398 36.2741 18.666 36.4054ZM27.3973 33.6041C27.2568 33.7482 27.088 33.8619 26.9015 33.938C26.715 34.0142 26.5148 34.0513 26.3134 34.0469H22.3531C22.1528 34.0522 21.9536 34.0155 21.7684 33.9392C21.5831 33.863 21.416 33.7488 21.2777 33.6041C20.9931 33.3158 20.8336 32.9274 20.8336 32.5228C20.8336 32.1182 20.9931 31.7298 21.2777 31.4415C21.416 31.2968 21.5831 31.1826 21.7684 31.1064C21.9536 31.0301 22.1528 30.9934 22.3531 30.9987H26.3134C26.6148 31.0013 26.9088 31.0922 27.1588 31.2603C27.4087 31.4283 27.6036 31.666 27.7192 31.9438C27.8347 32.2215 27.8658 32.527 27.8086 32.8223C27.7513 33.1175 27.6083 33.3894 27.3973 33.6041ZM36.1713 33.502C36.3921 33.4956 36.6117 33.5355 36.8161 33.6191C37.0204 33.7027 37.2049 33.8281 37.3577 33.9873C37.5146 34.1429 37.638 34.329 37.7202 34.534C37.8024 34.739 37.8417 34.9586 37.8356 35.1793C37.8419 35.4013 37.8027 35.6223 37.7205 35.8287C37.6384 36.0351 37.5149 36.2227 37.3577 36.3799C37.2044 36.5389 37.02 36.6648 36.8159 36.7498C36.6118 36.8347 36.3924 36.8769 36.1713 36.8737H31.5795C31.0376 36.8693 30.5191 36.6525 30.1359 36.2703C29.7528 35.888 29.5355 35.3708 29.5311 34.8302C29.5393 34.4706 29.6392 34.119 29.8212 33.8085L33.3633 27.5503V27.38H31.2295C31.0038 27.3859 30.7792 27.3458 30.5694 27.2623C30.3596 27.1788 30.1691 27.0536 30.0094 26.8943C29.8497 26.735 29.7242 26.5449 29.6405 26.3357C29.5568 26.1264 29.5167 25.9024 29.5225 25.6771C29.5199 25.2287 29.6947 24.7972 30.009 24.4766C30.1636 24.3169 30.3494 24.1906 30.555 24.1057C30.7605 24.0207 30.9814 23.9789 31.2039 23.9827H35.847C36.3866 23.9894 36.9019 24.2074 37.2819 24.5897C37.6619 24.9719 37.8761 25.4879 37.8783 26.0262C37.8847 26.3856 37.7901 26.7395 37.6052 27.048L34.0375 33.3317V33.502H36.1713ZM48.2569 31.5436H46.089V26.5797H48.2569V31.5436ZM50.8174 31.5436V26.5797H55.0251L58.4647 31.5436H50.8174Z" fill="#315EFB"/>
<path fill-rule="evenodd" clip-rule="evenodd" d="M8.97029 62H60.1803C62.5556 61.9978 64.8329 61.0548 66.5117 59.3785C68.1905 57.7021 69.1335 55.4294 69.1335 53.0598V19.0559C69.1335 18.9097 69.0281 18.7848 68.884 18.7602L66.5565 18.3627C66.3733 18.3314 66.206 18.4725 66.206 18.6584V53.0598C66.206 54.6601 65.5699 56.1952 64.4372 57.3284C63.3044 58.4617 61.7674 59.1006 60.1632 59.1051H8.95322C7.34822 59.1006 5.81038 58.4619 4.67627 57.329C3.54216 56.196 2.90416 54.6609 2.90191 53.0598V14.9403C2.9019 13.3384 3.53918 11.8021 4.67378 10.6686C5.80837 9.53511 7.34753 8.8972 8.95322 8.89494H53.7582C53.9751 8.89494 54.1203 8.67183 54.0325 8.47349L53.0164 6.17855C52.9684 6.07 52.8608 6 52.7421 6L8.95322 6C6.5779 6.00226 4.30063 6.94517 2.62182 8.62155C0.943006 10.2979 -9.99997e-07 12.5706 0 14.9403V53.0598C-9.99997e-07 54.2345 0.232084 55.3978 0.682988 56.483C1.1339 57.5682 1.79478 58.5542 2.62786 59.3845C3.46094 60.2148 4.44988 60.8731 5.53816 61.3219C6.62643 61.7707 7.7927 62.0011 8.97029 62Z" fill="#315EFB"/>
</g>
</g>
<path fill-rule="evenodd" clip-rule="evenodd" d="M65.2207 16.9448L70.5314 17.8374C70.7608 17.876 70.9443 17.6522 70.8616 17.4348L70.3496 16.0887C70.3028 15.9657 70.3385 15.8324 70.4406 15.7493L75.5115 11.6221C75.6753 11.4888 75.655 11.2351 75.4722 11.1295L74.522 10.5809C74.3956 10.5079 74.3405 10.3586 74.3891 10.221L75.3344 7.54564C75.415 7.31737 75.2076 7.09315 74.9738 7.15583L72.5352 7.80919C72.4022 7.84487 72.2665 7.78869 72.1977 7.66942L71.481 6.42802C71.382 6.25653 71.149 6.22583 71.0089 6.3659L69.2054 8.16942C69.0005 8.37425 68.6524 8.19769 68.6967 7.9114L69.4517 3.0257C69.4903 2.77631 69.2237 2.59387 69.0052 2.72003L67.4541 3.61552C67.3019 3.70342 67.1096 3.64399 67.0336 3.4855L65.4415 0.169513C65.333 -0.0565297 65.009 -0.056479 64.9005 0.169513L63.3084 3.4855C63.2323 3.64399 63.0401 3.70342 62.8878 3.61552L61.3368 2.72003C61.1182 2.59381 60.8516 2.77631 60.8902 3.0257L61.6453 7.91135C61.6895 8.19769 61.3413 8.37425 61.1365 8.16942L59.333 6.3659C59.193 6.22583 58.96 6.25653 58.8609 6.42802L58.1443 7.66942C58.0753 7.78869 57.9397 7.84487 57.8067 7.80919L55.3681 7.15583C55.1343 7.09315 54.9269 7.31737 55.0076 7.54564L55.9528 10.221C56.0015 10.3586 55.9463 10.5079 55.8199 10.5809L54.8697 11.1295C54.6869 11.2351 54.6666 11.4888 54.8304 11.6221L59.9013 15.7493C60.0034 15.8324 60.0391 15.9657 59.9923 16.0887L59.4803 17.4348C59.3976 17.6522 59.5811 17.876 59.8105 17.8374L65.1212 16.9448C65.1558 16.939 65.1861 16.939 65.2207 16.9448Z" fill="#DE241A"/>
<path d="M64.9191 21C64.8087 21 64.7191 20.9105 64.7191 20.8V16.2C64.7191 16.0895 64.8087 16 64.9191 16H65.5191C65.6296 16 65.7191 16.0895 65.7191 16.2V20.8C65.7191 20.9105 65.6296 21 65.5191 21H64.9191Z" fill="#DE241A"/>
</g>
<defs>
<clipPath id="clip0_489_1409">
<rect width="75.6228" height="62" fill="white"/>
</clipPath>
</defs>
</svg>
