<svg width="59" height="59" viewBox="0 0 59 59" fill="none" xmlns="http://www.w3.org/2000/svg">
<g clip-path="url(#clip0_21_1288)">
<path d="M19.7634 41.5515L44.2117 33.0782L47.9776 43.9441L23.5293 52.4174L19.7634 41.5515Z" fill="#F8CAA9"/>
<path d="M10.584 15.0659L35.0323 6.59264L44.2117 33.0783L19.7634 41.5516L10.584 15.0659Z" fill="#F8CAA9"/>
<path d="M12.413 15.9534L22.5998 12.4228L30.8377 36.192L20.6509 39.7225L12.413 15.9534Z" fill="#CA956F"/>
<path d="M23.958 11.9521L34.1448 8.42162L42.3827 32.1908L32.1959 35.7213L23.958 11.9521Z" fill="#E7FEFF"/>
<path d="M34.4355 16.5539C34.5248 16.5972 34.562 16.7047 34.5187 16.794L30.7468 24.5672C30.7035 24.6564 30.596 24.6937 30.5067 24.6504C30.4174 24.6071 30.3802 24.4996 30.4235 24.4103L34.1954 16.6371C34.2387 16.5478 34.3462 16.5106 34.4355 16.5539Z" fill="black"/>
<path d="M31.2175 25.9254L34.1019 19.9812C34.1452 19.8919 34.108 19.7844 34.0187 19.7411C33.9294 19.6978 33.8219 19.7351 33.7786 19.8243L30.8942 25.7685C30.8509 25.8578 30.8882 25.9653 30.9774 26.0086C31.0667 26.0519 31.1742 26.0147 31.2175 25.9254Z" fill="black"/>
<path fill-rule="evenodd" clip-rule="evenodd" d="M23.8993 11.7822C23.8055 11.8147 23.7558 11.9171 23.7883 12.0108L32.0262 35.78C32.0587 35.8738 32.1611 35.9235 32.2548 35.891L42.4416 32.3604C42.5354 32.3279 42.5851 32.2256 42.5526 32.1318L34.3147 8.36263C34.2822 8.26886 34.1798 8.21919 34.086 8.25169L23.8993 11.7822ZM32.3069 35.4926L24.1867 12.0629L34.0339 8.65009L42.1542 32.0797L32.3069 35.4926Z" fill="black"/>
<path fill-rule="evenodd" clip-rule="evenodd" d="M20.4812 39.7813C20.5137 39.8751 20.6161 39.9247 20.7098 39.8922L30.8966 36.3617C30.9904 36.3292 31.04 36.2268 31.0075 36.1331L22.7696 12.3639C22.7371 12.2701 22.6348 12.2205 22.541 12.253L12.3542 15.7835C12.2605 15.816 12.2108 15.9183 12.2433 16.0121L20.4812 39.7813ZM29.4323 32.6854L19.5851 36.0982L18.5259 33.0422L28.3731 29.6293L29.4323 32.6854ZM29.55 33.0249L19.7028 36.4378L20.7619 39.4938L30.6091 36.081L29.55 33.0249ZM28.2555 29.2898L18.4082 32.7026L17.3491 29.6466L27.1963 26.2337L28.2555 29.2898ZM27.0786 25.8942L17.2314 29.307L16.1722 26.251L26.0195 22.8382L27.0786 25.8942ZM25.9018 22.4986L16.0545 25.9114L14.9954 22.8554L24.8426 19.4426L25.9018 22.4986ZM24.7249 19.103L14.8777 22.5158L13.8185 19.4598L23.6658 16.047L24.7249 19.103ZM23.5481 15.7074L13.7008 19.1202L12.6417 16.0642L22.4889 12.6514L23.5481 15.7074Z" fill="black"/>
<path d="M30.1538 40.803C30.2475 40.7705 30.3499 40.8201 30.3824 40.9139L31.3239 43.6304C31.3564 43.7241 31.3067 43.8265 31.2129 43.859C31.1192 43.8915 31.0168 43.8418 30.9843 43.7481L30.0428 41.0316C30.0103 40.9378 30.06 40.8355 30.1538 40.803Z" fill="black"/>
<path d="M35.4758 39.1486L36.4173 41.8651C36.4498 41.9589 36.5521 42.0085 36.6459 41.976C36.7397 41.9435 36.7893 41.8412 36.7568 41.7474L35.8154 39.0309C35.7829 38.9372 35.6805 38.8875 35.5867 38.92C35.493 38.9525 35.4433 39.0549 35.4758 39.1486Z" fill="black"/>
<path fill-rule="evenodd" clip-rule="evenodd" d="M10.4143 15.1246C10.3818 15.0308 10.4315 14.9285 10.5252 14.896L34.9735 6.42271C35.0673 6.39021 35.1697 6.43988 35.2022 6.53365L48.1475 43.8852C48.18 43.979 48.1303 44.0813 48.0365 44.1138L23.5882 52.5871C23.4945 52.6196 23.3921 52.5699 23.3596 52.4762L10.4143 15.1246ZM19.8744 41.3228L43.9832 32.9672L34.9214 6.82111L10.8127 15.1767L19.8744 41.3228ZM19.9921 41.6624L23.6403 52.1887L35.5249 48.0698L31.8767 37.5434L19.9921 41.6624ZM32.2162 37.4257L35.8645 47.9521L47.7491 43.8331L44.1008 33.3068L32.2162 37.4257Z" fill="black"/>
</g>
<defs>
<clipPath id="clip0_21_1288">
<rect width="46" height="46" fill="white" transform="translate(0.0172119 15.3049) rotate(-19.1153)"/>
</clipPath>
</defs>
</svg>
