<svg width="62" height="62" viewBox="0 0 62 62" fill="none" xmlns="http://www.w3.org/2000/svg">
<path d="M44.0865 48.2698L43.9688 48.8836C43.8647 49.426 43.3407 49.7814 42.7983 49.6774L40.7727 49.2889C40.2303 49.1849 39.8749 48.6609 39.979 48.1185L40.0967 47.5046L44.0865 48.2698Z" fill="#8D6C54"/>
<path d="M16.9559 43.0669L16.8381 43.6807C16.7341 44.2231 16.2101 44.5785 15.6677 44.4745L13.6421 44.086C13.0997 43.982 12.7443 43.458 12.8484 42.9156L12.9661 42.3018L16.9559 43.0669Z" fill="#8D6C54"/>
<path d="M51.3462 22.3609C51.8886 22.4649 52.244 22.989 52.1399 23.5314L50.8333 30.3447C50.7293 30.8871 50.2053 31.2425 49.6629 31.1385L14.123 24.3228C13.5806 24.2188 13.2252 23.6948 13.3293 23.1524L14.6359 16.339C14.7399 15.7966 15.2639 15.4413 15.8063 15.5453L51.3462 22.3609Z" fill="#C29676"/>
<path d="M49.6628 31.1385C50.2052 31.2425 50.5606 31.7666 50.4566 32.309L49.15 39.1223C49.046 39.6647 48.5219 40.0201 47.9795 39.9161L12.4397 33.1004C11.8973 32.9964 11.5419 32.4724 11.6459 31.93L12.9525 25.1166C13.0565 24.5742 13.5806 24.2188 14.123 24.3229L49.6628 31.1385Z" fill="#C29676"/>
<path d="M47.9795 39.9161C48.5219 40.0201 48.8773 40.5441 48.7733 41.0865L47.4666 47.8999C47.3626 48.4423 46.8386 48.7977 46.2962 48.6936L10.7563 41.878C10.2139 41.774 9.85853 41.25 9.96255 40.7076L11.2692 33.8942C11.3732 33.3518 11.8972 32.9964 12.4396 33.1005L47.9795 39.9161Z" fill="#C29676"/>
<path d="M40.0966 32.4065C39.9864 32.3853 39.88 32.4575 39.8589 32.5677C39.8377 32.6779 39.9099 32.7843 40.0201 32.8054L43.2119 33.4175C43.3221 33.4387 43.4285 33.3665 43.4497 33.2563C43.4708 33.1461 43.3986 33.0397 43.2884 33.0186L40.0966 32.4065Z" fill="black"/>
<path d="M19.1119 28.589C19.1331 28.4788 19.2395 28.4066 19.3497 28.4277L22.5415 29.0398C22.6517 29.061 22.7239 29.1674 22.7027 29.2776C22.6816 29.3878 22.5752 29.4599 22.465 29.4388L19.2732 28.8267C19.163 28.8056 19.0908 28.6991 19.1119 28.589Z" fill="black"/>
<path d="M38.1755 41.3452C38.1967 41.2351 38.3031 41.1629 38.4133 41.184L41.6051 41.7961C41.7153 41.8172 41.7875 41.9237 41.7664 42.0339C41.7452 42.144 41.6388 42.2162 41.5286 42.1951L38.3368 41.583C38.2266 41.5619 38.1544 41.4554 38.1755 41.3452Z" fill="black"/>
<path d="M17.6664 37.2053C17.5562 37.1841 17.4497 37.2563 17.4286 37.3665C17.4075 37.4767 17.4797 37.5831 17.5898 37.6042L20.7817 38.2164C20.8919 38.2375 20.9983 38.1653 21.0194 38.0551C21.0406 37.945 20.9684 37.8385 20.8582 37.8174L17.6664 37.2053Z" fill="black"/>
<path d="M41.5422 23.7901C41.5633 23.68 41.6697 23.6078 41.7799 23.6289L44.9717 24.241C45.0819 24.2621 45.1541 24.3686 45.133 24.4788C45.1119 24.5889 45.0054 24.6611 44.8952 24.64L41.7034 24.0279C41.5932 24.0068 41.521 23.9003 41.5422 23.7901Z" fill="black"/>
<path d="M21.033 19.6502C20.9228 19.629 20.8164 19.7012 20.7952 19.8114C20.7741 19.9216 20.8463 20.028 20.9565 20.0491L24.1483 20.6613C24.2585 20.6824 24.3649 20.6102 24.386 20.5C24.4072 20.3899 24.335 20.2834 24.2248 20.2623L21.033 19.6502Z" fill="black"/>
<path fill-rule="evenodd" clip-rule="evenodd" d="M14.0645 15.0046C13.9543 14.9834 13.8479 15.0556 13.8267 15.1658C13.8056 15.276 13.8778 15.3824 13.988 15.4035L14.6205 15.5248C14.5865 15.583 14.5616 15.6479 14.5482 15.7178L13.0179 23.6974C12.9885 23.8507 13.0193 24.0015 13.0938 24.1256C12.9787 24.2133 12.8943 24.3421 12.8649 24.4954L11.3346 32.4749C11.3052 32.6282 11.336 32.7791 11.4105 32.9032C11.2954 32.9909 11.211 33.1196 11.1816 33.2729L9.65128 41.2525C9.58789 41.583 9.80445 41.9023 10.135 41.9657L12.7283 42.4631L12.5371 43.4605C12.4737 43.7911 12.6902 44.1104 13.0208 44.1738L16.2126 44.7859C16.5431 44.8493 16.8624 44.6327 16.9258 44.3022L17.1171 43.3047L39.8589 47.666L39.6677 48.6635C39.6043 48.994 39.8208 49.3133 40.1514 49.3767L43.3432 49.9888C43.6737 50.0522 43.9931 49.8357 44.0564 49.5051L44.2477 48.5077L46.8411 49.005C47.1716 49.0684 47.4909 48.8519 47.5543 48.5213L49.0846 40.5417C49.114 40.3885 49.0832 40.2376 49.0087 40.1135C49.1238 40.0258 49.2082 39.8971 49.2376 39.7438L50.7679 31.7642C50.7973 31.6109 50.7665 31.46 50.692 31.336C50.8071 31.2483 50.8916 31.1195 50.9209 30.9662L52.4512 22.9866C52.4646 22.9167 52.4655 22.8473 52.4554 22.7806L53.088 22.9019C53.1981 22.9231 53.3046 22.8509 53.3257 22.7407C53.3468 22.6305 53.2746 22.5241 53.1645 22.5029L14.0645 15.0046ZM48.6016 39.8286C48.7115 39.8493 48.8176 39.7772 48.8387 39.6673L50.3689 31.6877C50.3901 31.5775 50.3179 31.4711 50.2077 31.4499L13.5016 24.4106C13.3914 24.3895 13.285 24.4617 13.2638 24.5719L11.7336 32.5515C11.7124 32.6616 11.7846 32.7681 11.8948 32.7892L48.6009 39.8285L48.6016 39.8286ZM43.8487 48.4312L40.2579 47.7425L40.0666 48.74C40.0455 48.8502 40.1177 48.9566 40.2279 48.9777L43.4197 49.5899C43.5299 49.611 43.6363 49.5388 43.6575 49.4286L43.8487 48.4312ZM46.9176 48.6061C47.0278 48.6272 47.1342 48.555 47.1553 48.4448L48.6856 40.4652C48.7068 40.3551 48.6346 40.2486 48.5244 40.2275L11.8183 33.1882C11.7081 33.1671 11.6017 33.2392 11.5805 33.3494L10.0503 41.329C10.0291 41.4392 10.1013 41.5456 10.2115 41.5668L40.1339 47.3051L40.135 47.3053L46.9176 48.6061ZM16.7181 43.2282L13.1273 42.5396L12.936 43.537C12.9149 43.6472 12.9871 43.7537 13.0973 43.7748L16.2891 44.3869C16.3993 44.408 16.5057 44.3358 16.5269 44.2257L16.7181 43.2282ZM50.2842 31.051L13.5781 24.0117C13.4679 23.9905 13.3957 23.8841 13.4169 23.7739L14.9472 15.7943C14.9683 15.6842 15.0746 15.612 15.1848 15.6331L51.891 22.6724C52.0012 22.6935 52.0734 22.8 52.0523 22.9101L50.522 30.8897C50.5009 30.9997 50.3948 31.0718 50.2849 31.0511L50.2842 31.051Z" fill="black"/>
</svg>
