<svg width="330" height="335" viewBox="0 0 330 335" fill="none" xmlns="http://www.w3.org/2000/svg">
<path fill-rule="evenodd" clip-rule="evenodd" d="M199.061 225.221L256.234 203.892C258.703 202.971 259.236 199.734 257.193 198.07L244.542 187.76C243.386 186.818 242.981 185.308 243.512 183.914L269.891 114.682C270.743 112.446 269.106 110.071 266.714 110.071L254.281 110.071C252.628 110.071 251.24 108.918 250.938 107.292L245.056 75.6822C244.554 72.9852 241.249 71.9597 239.309 73.8998L219.081 94.1277C217.977 95.2315 216.328 95.4488 214.976 94.6686L200.91 86.5465C198.966 85.425 196.506 86.4437 195.925 88.6116L188.445 116.529C187.595 119.699 183.178 119.939 181.99 116.879L161.719 64.656C160.685 61.9901 157.035 61.7101 155.605 64.1864L145.458 81.7619C144.462 83.4871 142.238 83.9931 140.594 82.8688L106.183 59.3483C103.837 57.7448 100.658 59.5809 100.874 62.4134L104.037 103.975C104.189 105.961 102.639 107.633 100.647 107.633L80.3523 107.634C77.4926 107.633 75.9105 110.934 77.7019 113.163L112.793 156.83C114.849 159.389 112.432 163.095 109.262 162.245L81.345 154.765C79.1773 154.183 77.0648 155.805 77.0642 158.049L77.065 174.292C77.0644 175.853 76.052 177.172 74.5445 177.576L46.9122 184.98C44.2622 185.69 43.4971 189.066 45.5823 190.849L70.0166 211.747C71.2732 212.822 71.5783 214.599 70.7512 216.032L64.5348 226.799C63.3385 228.871 64.5772 231.475 66.9397 231.856L140.086 243.628C141.559 243.864 142.664 244.97 142.902 246.442L145.505 262.553C145.925 265.155 148.994 266.311 151.026 264.633L198.084 225.784C198.39 225.531 198.688 225.359 199.061 225.221Z" fill="#315EFB" fill-opacity="0.3"/>
<path d="M222.395 277.894L193.706 228.203L203.344 222.638L232.033 272.329L222.395 277.894Z" fill="#315EFB" fill-opacity="0.3"/>
</svg>
